<svg width="12" height="10" viewBox="0 0 12 10" fill="none" xmlns="http://www.w3.org/2000/svg">
<path d="M1.48355 2.49479C2.30289 2.49479 2.9671 1.93631 2.9671 1.24739C2.9671 0.558477 2.30289 0 1.48355 0C0.664208 0 0 0.558477 0 1.24739C0 1.93631 0.664208 2.49479 1.48355 2.49479Z" fill="white"/>
<path d="M2.71984 3.32812H0.247258C0.110772 3.32812 0 3.42126 0 3.53602V9.77299C0 9.88775 0.110772 9.98089 0.247258 9.98089H2.71984C2.85633 9.98089 2.9671 9.88775 2.9671 9.77299V3.53602C2.9671 3.42126 2.85633 3.32812 2.71984 3.32812Z" fill="white"/>
<path d="M10.0885 2.98285C9.03175 2.67849 7.70991 2.94585 6.9172 3.42526C6.89 3.33587 6.79307 3.26934 6.67785 3.26934H4.20527C4.06878 3.26934 3.95801 3.36248 3.95801 3.47724V9.7142C3.95801 9.82896 4.06878 9.9221 4.20527 9.9221H6.67785C6.81434 9.9221 6.92511 9.82896 6.92511 9.7142V5.2319C7.32468 4.94251 7.83947 4.8502 8.2608 5.00072C8.66927 5.14583 8.90317 5.50009 8.90317 5.97202V9.7142C8.90317 9.82896 9.01395 9.9221 9.15043 9.9221H11.623C11.7595 9.9221 11.8703 9.82896 11.8703 9.7142V5.55331C11.8421 3.8448 10.8862 3.21237 10.0885 2.98285Z" fill="white"/>
</svg>
