<svg width="1440" height="386" viewBox="0 0 1440 386" fill="none" xmlns="http://www.w3.org/2000/svg">
<path d="M-32.9738 153.312C-32.9738 153.312 15.9927 123.404 61.3299 120.646C107.344 117.877 146.652 119.279 203.019 128.535C279.756 140.852 428.256 193.335 506.329 162.283C584.403 131.231 587.767 129.823 627.416 110.223C671.761 87.8391 761.807 43.0494 874.248 43.2801C994.138 43.3916 1213.28 150.282 1302.57 143.433C1312.04 142.604 1347.18 137.3 1373.46 128.751C1399.06 120.214 1436.7 102.001 1488.07 95.0823C1509.69 92.0267 1544.15 86.7336 1584.13 87.4478C1594.29 87.9623 1626.83 89.473 1665.56 96.9803C1704.29 104.488 1740.38 116.778 1772.95 120.32C1842.82 126.651 1886.66 115.112 1886.66 115.112L1887.83 188.242L-31.9217 218.994L-32.9738 153.312ZM120.569 140.016C125.417 146.711 134.155 142.507 149.73 142.258C165.304 142.008 191.167 149.722 189.124 149.077C187.082 148.433 167.97 139.256 148.289 136.862C127.92 133.802 116.397 133.31 120.569 140.016ZM245.459 156.302C245.459 156.302 261.733 157.396 283.478 161.789C305.234 166.859 353.529 179.631 386.109 183.851C441.755 190.41 493.1 182.137 488.349 181.536C482.921 180.945 423.407 186.64 369.05 175.996C346.627 171.614 305.835 162.108 284.789 159.059C262.377 155.354 245.459 156.302 245.459 156.302ZM632.806 150.775C621.371 155.699 722.359 117.507 757.42 107.463C771.575 103.173 799.23 95.9568 824.919 92.8361C851.285 89.7045 885.143 89.1622 884.455 88.4959C884.433 87.1417 845.093 83.708 808.613 89.7108C772.133 95.7136 773.52 97.7233 757.322 101.369C731.677 107.198 644.242 145.851 632.806 150.775ZM538.854 163.117C537.5 163.138 544.315 165.739 571.239 155.148C598.163 144.557 616.229 130.721 617.562 129.345C618.905 128.647 594.056 141.913 573.194 150.375C553.01 158.826 539.532 163.106 538.854 163.117ZM-29.1867 178.312C-28.5204 177.624 -16.44 170.657 3.04591 160.863C22.5317 151.068 49.4664 141.155 48.123 141.853C46.7687 141.875 24.4874 146.296 -1.71577 159.584C-27.919 172.873 -29.853 179 -29.1867 178.312ZM1674.62 113.09C1673.97 114.455 1687.51 114.239 1705.22 120.728C1722.94 127.217 1741.96 130.976 1758.26 133.424C1785.43 138.407 1837.48 131.478 1834.76 130.844C1832.72 130.2 1779.26 133.765 1750.04 127.46C1735.08 124.313 1733.73 124.335 1711.26 117.245C1688.8 110.154 1675.27 111.048 1674.62 113.09ZM1392.51 133.865C1389.81 134.585 1368.98 145.078 1335.91 152.381C1302.84 160.361 1275.69 156.732 1275.73 158.764C1275.76 160.795 1282.6 164.749 1317.74 160.122C1352.89 155.496 1395.2 133.144 1392.51 133.865ZM1402.26 150.641C1400.89 149.986 1379.37 159.813 1363.84 162.771C1348.3 165.051 1351.03 166.362 1351.04 167.039C1351.05 167.717 1358.51 168.274 1369.3 165.392C1380.76 161.822 1403.62 151.296 1402.26 150.641ZM1253.53 168.601C1252.83 167.258 1229.74 163.564 1215.42 157.02C1201.09 150.477 1203.16 153.153 1202.49 153.841C1201.83 154.529 1208 159.171 1218.89 162.383C1229.79 166.272 1254.23 169.945 1253.53 168.601ZM1443.76 120.175C1444.41 118.133 1441.68 116.822 1430.92 121.735C1420.16 126.649 1413.45 130.82 1416.15 130.099C1418.85 129.379 1422.2 127.293 1432.99 124.411C1444.46 121.518 1443.12 122.217 1443.76 120.175ZM1652.87 108.02C1654.22 107.999 1638.56 102.831 1630.42 102.284C1622.29 101.737 1616.87 101.824 1616.9 103.855C1616.93 105.887 1617.63 107.23 1627.78 106.39C1638.6 105.54 1651.51 108.042 1652.87 108.02ZM854.903 61.8772C855.569 61.1892 871.188 63.6482 905.723 63.095C939.581 62.5527 998.077 77.8709 1022.57 84.9289C1047.07 91.9868 954.435 59.6055 910.398 58.9563C866.361 58.3071 854.237 62.5652 854.903 61.8772Z" fill="white"/>
<path d="M60.2516 95.602C60.9396 96.2683 91.3685 93.0717 109.007 94.821C158.516 98.7691 224.472 114.645 221.731 112.657C218.989 110.669 128.623 93.1522 106.255 92.1559C73.031 89.9789 59.5744 95.6129 60.2516 95.602Z" fill="white"/>
<path d="M346.903 146.551C348.268 147.206 377.484 152.834 411.364 153.646C445.243 154.458 497.298 148.205 494.6 148.926C492.58 149.636 454.843 161.754 404.668 158.494C354.493 155.234 345.538 145.895 346.903 146.551Z" fill="white"/>
<path d="M501.583 119.689C502.271 120.355 488.148 126.677 480.033 127.484C471.918 128.291 466.49 127.701 466.457 125.67C466.425 123.638 467.08 122.273 477.248 122.788C488.771 123.28 500.895 119.022 501.583 119.689Z" fill="white"/>
<path d="M525.587 138.269C525.598 138.946 555.252 129.667 568.01 122.689C580.778 116.389 609.657 101.026 608.98 101.036C608.292 100.37 580.713 112.326 566.601 119.325C552.489 126.324 525.576 137.592 525.587 138.269Z" fill="white"/>
<path d="M838.721 24.2075C839.409 24.8737 869.838 21.6771 887.477 23.4265C936.986 27.3745 1002.94 43.2506 1000.2 41.2626C997.459 39.2746 907.093 21.7577 884.725 20.7614C851.501 18.5843 838.033 23.5412 838.721 24.2075Z" fill="white"/>
<path d="M1375.21 111.113C1373.84 110.458 1361.75 116.747 1346.21 119.028C1330.66 120.632 1332.02 121.287 1332.04 122.642C1332.05 123.319 1344.28 125.155 1355.07 122.273C1365.85 118.714 1376.57 111.769 1375.21 111.113Z" fill="white"/>
<path d="M-99.7 262.867C-99.7 262.867 -49.7207 291.051 -4.31486 292.227C41.7682 293.39 81.0032 290.618 137.013 279.402C213.274 264.418 359.854 206.79 438.962 235.102C518.071 263.413 521.482 264.704 561.79 282.909C606.889 303.734 698.441 345.357 810.806 341.207C930.619 336.916 1145.9 222.452 1235.38 226.184C1244.87 226.682 1280.17 230.758 1306.73 238.385C1332.62 246.026 1370.87 262.915 1422.45 268.039C1444.16 270.339 1478.79 274.427 1518.71 272.32C1528.86 271.452 1561.32 268.808 1599.76 259.955C1638.21 251.102 1673.85 237.561 1706.28 232.885C1775.88 224.123 1820.1 234.126 1820.1 234.126L1818.72 161L-100.938 197.189L-99.7 262.867ZM54.2125 270.803C58.8248 263.943 67.7039 267.839 83.2779 267.546C98.8518 267.252 124.429 258.642 122.411 259.357C120.392 260.073 101.611 269.91 82.0256 272.988C61.7757 276.757 50.2774 277.651 54.2125 270.803ZM178.459 250.173C178.459 250.173 194.685 248.512 216.264 243.364C237.83 237.539 285.65 223.091 318.063 217.738C373.447 209.243 425.05 215.721 420.322 216.488C414.918 217.267 355.242 213.651 301.288 226.182C279.032 231.343 238.596 242.266 217.669 246.047C195.4 250.531 178.459 250.173 178.459 250.173ZM565.764 242.194C554.164 237.671 656.422 272.32 691.811 281.135C706.108 284.93 733.998 291.177 759.78 293.401C786.239 295.611 820.095 294.973 819.431 295.663C819.456 297.017 780.259 301.82 743.592 297.093C706.925 292.365 708.241 290.308 691.926 287.229C666.093 282.298 577.365 246.717 565.764 242.194ZM471.439 233.135C470.085 233.16 476.805 230.324 504.082 239.97C531.358 249.616 549.896 262.813 551.276 264.142C552.643 264.793 527.346 252.401 506.202 244.672C485.735 236.929 472.116 233.122 471.439 233.135ZM-96.7867 237.751C-96.0968 238.415 -83.7809 244.956 -63.9654 254.066C-44.15 263.175 -16.8861 272.143 -18.2531 271.492C-19.6073 271.517 -42.0292 267.876 -68.6796 255.509C-95.3302 243.142 -97.4765 237.087 -96.7867 237.751ZM1608.26 243.539C1607.56 242.197 1621.1 241.942 1638.58 234.839C1656.06 227.736 1674.94 223.316 1691.14 220.301C1718.12 214.374 1770.38 219.485 1767.68 220.213C1765.66 220.929 1712.12 219.229 1683.13 226.548C1668.29 230.215 1666.94 230.24 1644.74 238.11C1622.53 245.979 1608.98 245.557 1608.26 243.539ZM1325.59 232.611C1322.87 231.985 1301.69 222.225 1268.38 216.079C1235.06 209.257 1208.05 213.83 1208.01 211.798C1207.98 209.767 1214.67 205.577 1249.96 208.976C1285.25 212.374 1328.31 233.237 1325.59 232.611ZM1334.75 215.505C1333.41 216.208 1311.56 207.137 1295.94 204.722C1280.33 202.984 1283.01 201.579 1283 200.902C1282.98 200.225 1290.42 199.408 1301.3 201.912C1312.88 205.08 1336.09 214.803 1334.75 215.505ZM1185.49 202.74C1184.84 204.107 1161.89 208.604 1147.8 215.643C1133.71 222.682 1135.69 219.935 1135 219.271C1134.31 218.607 1140.31 213.752 1151.08 210.162C1161.84 205.895 1186.14 201.373 1185.49 202.74ZM1377.3 244.506C1378.01 246.524 1375.33 247.93 1364.4 243.394C1353.48 238.859 1346.63 234.924 1349.35 235.55C1352.08 236.176 1355.5 238.143 1366.38 240.648C1377.95 243.139 1376.58 242.487 1377.3 244.506ZM1586.69 249.364C1588.05 249.338 1572.58 255.049 1564.46 255.879C1556.35 256.709 1550.93 256.811 1550.9 254.78C1550.86 252.749 1551.51 251.382 1561.68 251.867C1572.53 252.34 1585.34 249.389 1586.69 249.364ZM790.825 323.296C791.515 323.96 807.037 320.958 841.571 320.307C875.427 319.669 933.354 302.321 957.59 294.413C981.827 286.505 890.375 322.096 846.387 324.28C802.4 326.464 790.135 322.631 790.825 323.296Z" fill="white"/>
<path d="M-4.51962 317.291C-3.85526 316.601 26.6667 318.735 44.2337 316.372C93.5747 310.7 158.937 292.535 156.267 294.617C153.597 296.7 63.896 317.356 41.5763 319.131C8.44807 322.465 -5.19674 317.304 -4.51962 317.291Z" fill="white"/>
<path d="M280.182 256.383C281.524 255.68 310.525 249.037 344.356 247.045C378.187 245.053 430.428 249.486 427.707 248.86C425.663 248.222 387.526 237.426 337.496 242.433C287.465 247.44 278.841 257.085 280.182 256.383Z" fill="white"/>
<path d="M435.704 277.835C436.368 277.145 422.034 271.32 413.895 270.796C405.757 270.272 400.353 271.051 400.391 273.082C400.429 275.114 401.132 276.455 411.276 275.586C422.775 274.692 435.04 278.525 435.704 277.835Z" fill="white"/>
<path d="M459.046 258.43C459.033 257.753 488.993 265.994 501.986 272.522C514.966 278.374 544.363 292.721 543.686 292.734C543.022 293.423 515.043 282.436 500.695 275.933C486.348 269.43 459.058 259.108 459.046 258.43Z" fill="white"/>
<path d="M775.966 361.506C776.63 360.816 807.152 362.95 824.719 360.587C874.06 354.915 939.422 336.75 936.752 338.832C934.082 340.914 844.381 361.571 822.062 363.346C788.933 366.68 775.301 362.196 775.966 361.506Z" fill="white"/>
<path d="M1537.47 297.028C1537.47 297.028 1529.3 295.15 1517.82 296.721C1506.33 298.292 1478.66 303.556 1462.38 302.508C1433.89 300.335 1411.93 285.171 1414.65 285.797C1417.36 285.746 1444.05 300.144 1473.13 297.564C1485.3 296.657 1507.6 293.527 1518.44 294C1529.29 294.473 1537.47 297.028 1537.47 297.028Z" fill="white"/>
<path d="M1309.1 255.953C1307.76 256.655 1295.45 250.791 1279.84 249.053C1264.24 247.993 1265.58 247.29 1265.56 245.936C1265.54 245.259 1277.69 242.998 1288.58 245.502C1299.48 248.683 1310.44 255.25 1309.1 255.953Z" fill="white"/>
</svg>
