<svg width="1440" height="366" viewBox="0 0 1440 366" fill="none" xmlns="http://www.w3.org/2000/svg">
<path d="M2166 246.392C2166 246.392 2110.23 274.697 2059.04 276.672C2007.08 278.647 1962.77 276.672 1899.36 266.798C1813.02 253.633 1646.47 200.312 1557.84 229.276C1469.21 258.241 1465.39 259.557 1420.32 277.989C1369.89 299.053 1267.51 341.183 1140.68 339.208C1005.45 337.233 760.201 229.935 659.35 235.201C648.654 235.859 608.925 240.467 579.128 248.366C550.095 256.266 507.31 273.381 449.244 279.305C424.796 281.938 385.831 286.546 340.753 285.23C329.293 284.571 292.62 282.597 249.071 274.697C205.522 266.798 165.029 254.291 128.356 250.341C49.6614 243.1 0 253.633 0 253.633V182.539H2166V246.392ZM1992.57 256.924C1987.22 250.341 1977.29 254.291 1959.71 254.291C1942.14 254.291 1913.11 246.392 1915.4 247.05C1917.69 247.708 1939.09 256.924 1961.24 259.557C1984.16 262.848 1997.15 263.507 1992.57 256.924ZM1851.99 239.151C1851.99 239.151 1833.65 237.834 1809.2 233.226C1784.75 227.96 1730.51 214.794 1693.83 210.187C1631.19 202.946 1573.12 210.187 1578.47 210.845C1584.58 211.503 1651.81 206.895 1712.94 218.086C1738.15 222.694 1783.99 232.568 1807.67 235.859C1832.89 239.809 1851.99 239.151 1851.99 239.151ZM1414.97 238.492C1427.96 233.884 1313.35 269.431 1273.62 278.647C1257.58 282.597 1226.25 289.179 1197.22 291.812C1167.42 294.446 1129.22 294.446 1129.99 295.104C1129.99 296.42 1174.3 300.37 1215.56 295.104C1256.81 289.838 1255.29 287.863 1273.62 284.571C1302.66 279.305 1401.98 243.1 1414.97 238.492ZM1521.17 227.96C1522.69 227.96 1515.05 225.327 1484.49 235.201C1453.93 245.075 1433.3 258.241 1431.78 259.557C1430.25 260.215 1458.52 247.708 1482.2 239.809C1505.12 231.91 1520.4 227.96 1521.17 227.96ZM2162.18 222.035C2161.42 222.694 2147.66 229.276 2125.51 238.492C2103.35 247.708 2072.79 256.924 2074.32 256.266C2075.85 256.266 2101.06 252.316 2130.85 239.809C2160.65 227.302 2162.94 221.377 2162.18 222.035ZM239.139 258.899C239.903 257.582 224.622 257.582 204.758 250.999C184.893 244.417 163.501 240.467 145.164 237.834C114.603 232.568 55.7735 238.492 58.8296 239.151C61.1217 239.809 121.479 237.176 154.332 243.758C171.141 247.05 172.669 247.05 197.881 254.291C223.094 261.532 238.375 260.874 239.139 258.899ZM557.735 243.1C560.792 242.442 584.476 232.568 621.913 225.985C659.35 218.744 689.911 222.694 689.911 220.719C689.911 218.744 682.271 214.794 642.542 218.744C602.813 222.694 554.679 243.758 557.735 243.1ZM547.039 226.643C548.567 227.302 573.016 218.086 590.588 215.453C608.161 213.478 605.105 212.161 605.105 211.503C605.105 210.845 596.701 210.187 584.476 212.82C571.488 216.111 545.511 225.985 547.039 226.643ZM715.124 211.503C715.888 212.82 741.865 216.769 757.909 223.352C773.953 229.935 771.661 227.302 772.425 226.643C773.189 225.985 766.313 221.377 754.089 218.086C741.865 214.136 714.36 210.187 715.124 211.503ZM499.67 255.607C498.906 257.582 501.962 258.899 514.186 254.291C526.411 249.683 534.051 245.733 530.995 246.392C527.939 247.05 524.119 249.025 511.894 251.658C498.906 254.291 500.434 253.633 499.67 255.607ZM263.587 264.165C262.059 264.165 279.632 269.431 288.8 270.089C297.968 270.748 304.08 270.748 304.08 268.773C304.08 266.798 303.316 265.482 291.856 266.14C279.632 266.798 265.115 264.165 263.587 264.165ZM1162.84 321.435C1162.08 322.093 1144.5 319.46 1105.54 319.46C1067.34 319.46 1001.63 303.661 974.127 296.42C946.622 289.179 1050.53 322.093 1100.19 323.41C1149.85 324.726 1163.6 320.776 1162.84 321.435Z" fill="url(#paint0_linear_548_79810)"/>
<path d="M1180.41 358.299C1179.65 357.64 1145.27 360.273 1125.4 358.299C1069.63 353.691 995.52 337.234 998.576 339.209C1001.63 341.183 1103.25 359.615 1128.46 360.932C1165.9 363.565 1181.18 358.957 1180.41 358.299Z" fill="url(#paint1_linear_548_79810)"/>
<path d="M320.125 309.586C320.125 309.586 329.293 307.611 342.282 308.927C355.27 310.244 386.595 314.852 404.931 313.535C437.02 310.902 461.469 295.762 458.413 296.42C455.357 296.42 425.56 310.902 392.707 308.927C378.955 308.269 353.742 305.636 341.518 306.294C329.293 306.953 320.125 309.586 320.125 309.586Z" fill="url(#paint2_linear_548_79810)"/>
<path d="M576.836 265.481C578.364 266.14 592.116 260.215 609.689 258.24C627.261 256.924 625.733 256.265 625.733 254.949C625.733 254.291 611.981 252.316 599.756 254.949C587.532 258.24 575.308 264.823 576.836 265.481Z" fill="url(#paint3_linear_548_79810)"/>
<path d="M119.188 269.432C119.188 268.773 152.04 269.432 170.377 272.723C188.713 276.014 208.578 285.23 208.578 285.888C208.578 286.547 187.949 280.622 169.613 276.673C152.04 272.723 119.952 270.09 119.188 269.432Z" fill="url(#paint4_linear_548_79810)"/>
<path d="M2166 119.147C2166 119.147 2110.23 90.8417 2059.04 88.8669C2007.08 86.8921 1962.77 88.8669 1899.36 98.741C1813.02 111.906 1646.47 165.227 1557.84 136.263C1469.21 107.299 1465.39 105.982 1420.32 87.5504C1369.89 66.4856 1267.51 24.3561 1140.68 26.3309C1005.45 28.3058 760.201 135.604 659.35 130.338C648.654 129.68 608.925 125.072 579.128 117.173C550.095 109.273 507.31 92.1583 449.244 86.2338C424.796 83.6007 385.831 78.9928 340.753 80.3093C329.293 80.9676 292.62 82.9425 249.071 90.8417C205.522 98.741 165.029 111.248 128.356 115.198C49.6614 122.439 0 111.906 0 111.906V183H2166V119.147ZM1992.57 108.615C1987.22 115.198 1977.29 111.248 1959.71 111.248C1942.14 111.248 1913.11 119.147 1915.4 118.489C1917.69 117.831 1939.09 108.615 1961.24 105.982C1984.16 102.691 1997.15 102.032 1992.57 108.615ZM1851.99 126.388C1851.99 126.388 1833.65 127.705 1809.2 132.313C1784.75 137.579 1730.51 150.745 1693.83 155.353C1631.19 162.594 1573.12 155.353 1578.47 154.694C1584.58 154.036 1651.81 158.644 1712.94 147.453C1738.15 142.845 1783.99 132.971 1807.67 129.68C1832.89 125.73 1851.99 126.388 1851.99 126.388ZM1414.97 127.047C1427.96 131.655 1313.35 96.1079 1273.62 86.8921C1257.58 82.9424 1226.25 76.3597 1197.22 73.7266C1167.42 71.0935 1129.22 71.0935 1129.99 70.4352C1129.99 69.1187 1174.3 65.1691 1215.56 70.4352C1256.81 75.7014 1255.29 77.6763 1273.62 80.9676C1302.66 86.2338 1401.98 122.439 1414.97 127.047ZM1521.17 137.579C1522.69 137.579 1515.05 140.212 1484.49 130.338C1453.93 120.464 1433.3 107.299 1431.78 105.982C1430.25 105.324 1458.52 117.831 1482.2 125.73C1505.12 133.629 1520.4 137.579 1521.17 137.579ZM2162.18 143.504C2161.42 142.845 2147.66 136.263 2125.51 127.047C2103.35 117.831 2072.79 108.615 2074.32 109.273C2075.85 109.273 2101.06 113.223 2130.85 125.73C2160.65 138.237 2162.94 144.162 2162.18 143.504ZM239.139 106.64C239.903 107.957 224.622 107.957 204.758 114.54C184.893 121.122 163.501 125.072 145.164 127.705C114.603 132.971 55.7735 127.047 58.8296 126.388C61.1217 125.73 121.479 128.363 154.332 121.781C171.141 118.489 172.669 118.489 197.881 111.248C223.094 104.007 238.375 104.665 239.139 106.64ZM557.735 122.439C560.792 123.097 584.476 132.971 621.913 139.554C659.35 146.795 689.911 142.845 689.911 144.82C689.911 146.795 682.271 150.745 642.542 146.795C602.813 142.845 554.679 121.781 557.735 122.439ZM547.039 138.896C548.567 138.237 573.016 147.453 590.588 150.086C608.161 152.061 605.105 153.378 605.105 154.036C605.105 154.694 596.701 155.353 584.476 152.719C571.488 149.428 545.511 139.554 547.039 138.896ZM715.124 154.036C715.888 152.719 741.865 148.77 757.909 142.187C773.953 135.604 771.661 138.237 772.425 138.896C773.189 139.554 766.313 144.162 754.089 147.453C741.865 151.403 714.36 155.353 715.124 154.036ZM499.67 109.932C498.906 107.957 501.962 106.64 514.186 111.248C526.411 115.856 534.051 119.806 530.995 119.147C527.939 118.489 524.119 116.514 511.894 113.881C498.906 111.248 500.434 111.906 499.67 109.932ZM263.587 101.374C262.059 101.374 279.632 96.1079 288.8 95.4496C297.968 94.7914 304.08 94.7914 304.08 96.7662C304.08 98.741 303.316 100.058 291.856 99.3993C279.632 98.741 265.115 101.374 263.587 101.374ZM1162.84 44.1043C1162.08 43.446 1144.5 46.0791 1105.54 46.0791C1067.34 46.0791 1001.63 61.8777 974.127 69.1187C946.622 76.3597 1050.53 43.446 1100.19 42.1295C1149.85 40.813 1163.6 44.7626 1162.84 44.1043Z" fill="url(#paint5_linear_548_79810)"/>
<path d="M1180.41 7.24052C1179.65 7.89879 1145.27 5.2657 1125.4 7.24052C1069.63 11.8484 995.52 28.3053 998.576 26.3305C1001.63 24.3556 1103.25 5.92398 1128.46 4.60743C1165.9 1.97434 1181.18 6.58225 1180.41 7.24052Z" fill="url(#paint6_linear_548_79810)"/>
<path d="M320.125 55.9533C320.125 55.9533 329.293 57.9281 342.282 56.6116C355.27 55.2951 386.595 50.6871 404.931 52.0037C437.02 54.6368 461.469 69.7771 458.413 69.1188C455.357 69.1188 425.56 54.6368 392.707 56.6116C378.955 57.2699 353.742 59.903 341.518 59.2447C329.293 58.5864 320.125 55.9533 320.125 55.9533Z" fill="url(#paint7_linear_548_79810)"/>
<path d="M576.836 100.058C578.364 99.3995 592.116 105.324 609.689 107.299C627.261 108.615 625.733 109.274 625.733 110.59C625.733 111.248 611.981 113.223 599.756 110.59C587.532 107.299 575.308 100.716 576.836 100.058Z" fill="url(#paint8_linear_548_79810)"/>
<path d="M119.188 96.1075C119.188 96.7658 152.04 96.1075 170.377 92.8162C188.713 89.5248 208.578 80.309 208.578 79.6507C208.578 78.9924 187.949 84.9169 169.613 88.8665C152.04 92.8162 119.952 95.4493 119.188 96.1075Z" fill="url(#paint9_linear_548_79810)"/>
<defs>
<linearGradient id="paint0_linear_548_79810" x1="2166" y1="260.907" x2="0" y2="260.907" gradientUnits="userSpaceOnUse">
<stop/>
<stop offset="0.485577" stop-color="#0C1C33"/>
<stop offset="1" stop-color="#009BF0"/>
</linearGradient>
<linearGradient id="paint1_linear_548_79810" x1="1180.44" y1="350.391" x2="998.484" y2="350.391" gradientUnits="userSpaceOnUse">
<stop/>
<stop offset="0.485577" stop-color="#0C1C33"/>
<stop offset="1" stop-color="#009BF0"/>
</linearGradient>
<linearGradient id="paint2_linear_548_79810" x1="458.671" y1="305.084" x2="320.125" y2="305.084" gradientUnits="userSpaceOnUse">
<stop/>
<stop offset="0.485577" stop-color="#0C1C33"/>
<stop offset="1" stop-color="#009BF0"/>
</linearGradient>
<linearGradient id="paint3_linear_548_79810" x1="625.767" y1="259.575" x2="576.706" y2="259.575" gradientUnits="userSpaceOnUse">
<stop/>
<stop offset="0.485577" stop-color="#0C1C33"/>
<stop offset="1" stop-color="#009BF0"/>
</linearGradient>
<linearGradient id="paint4_linear_548_79810" x1="208.578" y1="277.571" x2="119.188" y2="277.571" gradientUnits="userSpaceOnUse">
<stop/>
<stop offset="0.485577" stop-color="#0C1C33"/>
<stop offset="1" stop-color="#009BF0"/>
</linearGradient>
<linearGradient id="paint5_linear_548_79810" x1="2166" y1="104.632" x2="0" y2="104.632" gradientUnits="userSpaceOnUse">
<stop/>
<stop offset="0.485577" stop-color="#0C1C33"/>
<stop offset="1" stop-color="#009BF0"/>
</linearGradient>
<linearGradient id="paint6_linear_548_79810" x1="1180.44" y1="15.148" x2="998.484" y2="15.148" gradientUnits="userSpaceOnUse">
<stop/>
<stop offset="0.485577" stop-color="#0C1C33"/>
<stop offset="1" stop-color="#009BF0"/>
</linearGradient>
<linearGradient id="paint7_linear_548_79810" x1="458.671" y1="60.4546" x2="320.125" y2="60.4546" gradientUnits="userSpaceOnUse">
<stop/>
<stop offset="0.485577" stop-color="#0C1C33"/>
<stop offset="1" stop-color="#009BF0"/>
</linearGradient>
<linearGradient id="paint8_linear_548_79810" x1="625.767" y1="105.964" x2="576.706" y2="105.964" gradientUnits="userSpaceOnUse">
<stop/>
<stop offset="0.485577" stop-color="#0C1C33"/>
<stop offset="1" stop-color="#009BF0"/>
</linearGradient>
<linearGradient id="paint9_linear_548_79810" x1="208.578" y1="87.9686" x2="119.188" y2="87.9686" gradientUnits="userSpaceOnUse">
<stop/>
<stop offset="0.485577" stop-color="#0C1C33"/>
<stop offset="1" stop-color="#009BF0"/>
</linearGradient>
</defs>
</svg>
